<svg width="4" height="6" viewBox="0 0 4 6" fill="none" xmlns="http://www.w3.org/2000/svg"><path d="M2.0913 5.58142C1.98627 5.83046 1.82271 5.98352 1.64587 5.99873C1.46903 6.0141 1.29775 5.88958 1.17926 5.65967L0.117393 3.60104C-0.0513706 3.27406 -0.0363794 2.77002 0.150787 2.47519C0.338132 2.18036 0.626467 2.20671 0.79523 2.53385L1.5465 3.99043C1.55763 4.01207 1.57379 4.02368 1.59039 4.02227C1.60709 4.02086 1.62235 4.00627 1.63232 3.98306L3.1765 0.324189C3.32597 -0.0302339 3.61161 -0.105666 3.81457 0.155603C4.01736 0.416873 4.06045 0.915888 3.91089 1.27015L2.0913 5.58142Z" fill="#008D28"/></svg>
