<svg id="Capa_1" enable-background="new 0 0 512 512" height="512" viewBox="0 0 512 512" width="512" xmlns="http://www.w3.org/2000/svg"><g id="XMLID_12_"><g id="XMLID_2620_"><g id="XMLID_683_"><path id="XMLID_699_" d="m256.059 151.099h-.117c-27.445 0-49.773-22.328-49.773-49.773s22.328-49.773 49.773-49.773h.117c27.445 0 49.773 22.328 49.773 49.773s-22.328 49.773-49.773 49.773zm-.118-69.547c-10.903 0-19.773 8.87-19.773 19.773s8.87 19.773 19.773 19.773h.117c10.903 0 19.773-8.87 19.773-19.773s-8.87-19.773-19.773-19.773z" fill="#07485e"/></g><g id="XMLID_2714_"><path id="XMLID_703_" d="m256.059 51.552h-.059v30h.059c10.903 0 19.773 8.87 19.773 19.773s-8.87 19.773-19.773 19.773h-.059v30h.059c27.445 0 49.773-22.328 49.773-49.773s-22.328-49.773-49.773-49.773z" fill="#04303e"/></g><path id="XMLID_684_" d="m366.6 122.634h-221.201c-39.37 0-71.4 32.03-71.4 71.4 0 8.284 6.716 15 15 15h334.001c8.284 0 15-6.716 15-15 0-39.37-32.03-71.4-71.4-71.4z" fill="#ebf5f7"/><g id="XMLID_2712_"><path id="XMLID_709_" d="m366.6 122.634h-110.6v86.4h167c8.284 0 15-6.716 15-15 0-39.37-32.03-71.4-71.4-71.4z" fill="#dfeef0"/></g><g id="XMLID_2710_"><path id="XMLID_714_" d="m129.148 460.448c-8.284 0-15-6.716-15-15v-23.923c0-8.284 6.716-15 15-15s15 6.716 15 15v23.923c0 8.284-6.716 15-15 15z" fill="#07485e"/><path id="XMLID_712_" d="m382.852 460.448c-8.284 0-15-6.716-15-15v-23.923c0-8.284 6.716-15 15-15s15 6.716 15 15v23.923c0 8.284-6.716 15-15 15z" fill="#04303e"/><g id="XMLID_694_"><path id="XMLID_689_" d="m89 193.396h-74c-8.284 0-15 6.716-15 15v21.628c0 8.284 6.716 15 15 15 10.582 0 19.19 8.608 19.19 19.19 0 8.284 6.716 15 15 15h39.81c8.284 0 15-6.716 15-15v-55.818c0-8.284-6.716-15-15-15z" fill="#07485e"/><path id="XMLID_685_" d="m497 193.396h-74c-8.284 0-15 6.716-15 15v55.818c0 8.284 6.716 15 15 15h39.809c8.284 0 15-6.716 15-15 0-10.582 8.609-19.19 19.191-19.19 8.284 0 15-6.716 15-15v-21.628c0-8.284-6.716-15-15-15z" fill="#04303e"/></g></g></g><path id="XMLID_686_" d="m438 193.396h-364.001v208.228c0 18.026 14.613 32.638 32.638 32.638h298.725c18.026 0 32.638-14.613 32.638-32.638z" fill="#fc8a26"/><g id="XMLID_2702_"><path id="XMLID_707_" d="m256 193.396v240.866h149.362c18.026 0 32.638-14.613 32.638-32.638v-208.228z" fill="#ff4c04"/></g><path id="XMLID_682_" d="m263.851 320.217h-15.701c-8.099 0-15.186 4.323-19.085 10.786h-20.265c-8.284 0-15 6.716-15 15s6.716 15 15 15h20.265c3.899 6.463 10.987 10.785 19.085 10.785h15.701c12.302 0 22.274-9.973 22.274-22.274v-7.023c0-12.301-9.973-22.274-22.274-22.274z" fill="#07485e"/><g id="XMLID_2625_"><path id="XMLID_704_" d="m263.851 320.217h-7.851v51.571h7.851c12.302 0 22.274-9.973 22.274-22.274v-7.023c0-12.301-9.973-22.274-22.274-22.274z" fill="#04303e"/></g></g></svg>